<svg width="300" height="300" viewBox="0 0 300 300" fill="none" xmlns="http://www.w3.org/2000/svg">
<path d="M109.991 42.4695C121.296 45.7883 133.151 39.3143 136.469 28.0094C139.788 16.7044 133.314 4.84944 122.009 1.53055C110.704 -1.78834 98.8494 4.68566 95.5305 15.9906C92.2117 27.2956 98.6857 39.1506 109.991 42.4695ZM87.838 132.127L119.838 23.1268L112.162 20.8732L80.162 129.873L87.838 132.127Z" fill="#D9D9D9"/>
<path d="M236.404 104.561C239.476 115.936 251.187 122.667 262.561 119.596C273.936 116.524 280.667 104.813 277.596 93.4387C274.524 82.064 262.813 75.3329 251.439 78.4043C240.064 81.4757 233.333 93.1866 236.404 104.561ZM81.0427 150.656L258.043 102.862L255.957 95.1383L78.9573 142.932L81.0427 150.656Z" fill="#D9D9D9"/>
<path d="M140.147 239.443C125.48 249.303 121.583 269.186 131.443 283.853C141.303 298.52 161.186 302.417 175.853 292.557C190.52 282.697 194.417 262.814 184.557 248.147C174.697 233.48 154.814 229.583 140.147 239.443ZM73.0206 150.347L153.021 269.347L162.979 262.653L82.9794 143.653L73.0206 150.347Z" fill="#D9D9D9"/>
<circle cx="80" cy="147" r="32" fill="#D9D9D9"/>
</svg>
